<svg width="30" height="23" viewBox="0 0 30 23" fill="none" xmlns="http://www.w3.org/2000/svg">
<path d="M25.0905 2.40818C25.0821 2.3924 25.0684 2.38024 25.0517 2.374C23.2064 1.52039 21.2592 0.911479 19.2586 0.562475C19.2406 0.559155 19.2221 0.56161 19.2056 0.569496C19.1891 0.577381 19.1754 0.590298 19.1666 0.606421C18.9012 1.09191 18.6604 1.5906 18.4449 2.10056C16.2872 1.77042 14.0925 1.77042 11.9349 2.10056C11.7185 1.58933 11.4743 1.09053 11.2035 0.606421C11.1941 0.590778 11.1804 0.578264 11.164 0.570447C11.1477 0.56263 11.1294 0.559857 11.1114 0.562475C9.10737 0.909907 7.15671 1.51886 5.30862 2.374C5.29241 2.38092 5.27883 2.3929 5.26987 2.40818C1.57893 7.9697 0.566585 13.3896 1.06065 18.7461C1.06205 18.7595 1.06621 18.7726 1.07289 18.7844C1.07956 18.7961 1.08859 18.8064 1.0994 18.8144C3.24937 20.4175 5.65375 21.6409 8.21002 22.4326C8.2284 22.4383 8.24809 22.4381 8.26633 22.432C8.28458 22.4258 8.30046 22.4141 8.31174 22.3984C8.86022 21.6457 9.34624 20.8488 9.76487 20.0156C9.77044 20.0041 9.77361 19.9916 9.77417 19.9789C9.77473 19.9661 9.77267 19.9534 9.76812 19.9415C9.76358 19.9296 9.75664 19.9187 9.74774 19.9096C9.73885 19.9005 9.72819 19.8934 9.71643 19.8886C8.94846 19.592 8.20504 19.2344 7.49315 18.8193C7.48057 18.8115 7.47002 18.8008 7.4624 18.7881C7.45478 18.7754 7.45031 18.761 7.44936 18.7462C7.44841 18.7313 7.45101 18.7165 7.45695 18.7029C7.46288 18.6892 7.47198 18.6773 7.48346 18.6679C7.63362 18.5556 7.78377 18.4384 7.92424 18.3213C7.93664 18.3103 7.95186 18.3031 7.96815 18.3005C7.98444 18.2979 8.00113 18.3 8.01627 18.3066C12.676 20.4502 17.7231 20.4502 22.3296 18.3066C22.3443 18.2994 22.3607 18.2964 22.377 18.2982C22.3932 18.2999 22.4087 18.3062 22.4216 18.3164C22.5621 18.4336 22.7122 18.5556 22.8624 18.6679C22.8739 18.6773 22.8829 18.6892 22.8889 18.7029C22.8948 18.7165 22.8974 18.7313 22.8965 18.7462C22.8955 18.761 22.891 18.7754 22.8834 18.7881C22.8758 18.8008 22.8653 18.8115 22.8527 18.8193C22.1426 19.2366 21.3989 19.5927 20.6294 19.8838C20.6176 19.8885 20.607 19.8956 20.5981 19.9047C20.5892 19.9138 20.5823 19.9247 20.5777 19.9366C20.5732 19.9485 20.5711 19.9612 20.5717 19.974C20.5722 19.9867 20.5754 19.9993 20.581 20.0107C21.0069 20.8397 21.4926 21.6361 22.0341 22.3935C22.0454 22.4092 22.0613 22.421 22.0795 22.4271C22.0977 22.4332 22.1174 22.4334 22.1358 22.4277C24.6995 21.6396 27.1108 20.416 29.2658 18.8095C29.2768 18.8017 29.286 18.7915 29.2927 18.7797C29.2994 18.7679 29.3035 18.7547 29.3046 18.7412C29.8955 12.5547 28.3067 7.17869 25.0905 2.40818ZM10.4624 15.4843C9.05768 15.4843 7.90487 14.1855 7.90487 12.5937C7.90487 11.0019 9.03831 9.69822 10.4624 9.69822C11.901 9.69822 13.0441 11.0068 13.0199 12.5888C13.0199 14.1855 11.8864 15.4843 10.4624 15.4843ZM19.9271 15.4843C18.5224 15.4843 17.3696 14.1855 17.3696 12.5937C17.3696 11.0019 18.4981 9.69822 19.9271 9.69822C21.3656 9.69822 22.5088 11.0068 22.4846 12.5888C22.4846 14.1855 21.3608 15.4843 19.9271 15.4843Z" fill="white"/>
</svg>
