<svg width="24" height="21" viewBox="0 0 24 21" fill="none" xmlns="http://www.w3.org/2000/svg">
<path d="M23.8867 1.87537C23.5584 5.39724 22.1213 13.9504 21.3939 17.8945C21.0834 19.5656 20.4802 20.1226 19.8947 20.1765C18.6173 20.2933 17.6504 19.323 16.4084 18.4965C14.4746 17.2117 13.3746 16.4121 11.5028 15.1543C9.32941 13.7078 10.7399 12.9082 11.973 11.6054C12.3012 11.264 17.9254 6.08005 18.0318 5.61287C18.0496 5.54998 18.0584 5.33435 17.9254 5.21755C17.7923 5.10076 17.606 5.14568 17.473 5.17263C17.2778 5.21456 14.1848 7.28396 8.19393 11.3808C7.31866 11.9918 6.52323 12.2883 5.80764 12.2703C5.01812 12.2523 3.51006 11.8211 2.38345 11.4527C1.00845 11.0035 -0.0915535 10.7609 0.00602717 9.98826C0.053339 9.58696 0.600382 9.17667 1.64716 8.7574C8.05791 5.93031 12.3337 4.06456 14.4746 3.16013C20.5867 0.590601 21.8552 0.141382 22.6802 0.123413C22.8665 0.123413 23.2657 0.168336 23.5318 0.383961C23.7055 0.538615 23.8162 0.753182 23.8423 0.985914C23.8903 1.27974 23.9052 1.57814 23.8867 1.87537Z" fill="white"/>
</svg>
